<?xml version="1.0" encoding="utf-8"?>
<!-- Generator: Adobe Illustrator 24.3.0, SVG Export Plug-In . SVG Version: 6.00 Build 0)  -->
<svg version="1.1" id="Calque_1" xmlns="http://www.w3.org/2000/svg" xmlns:xlink="http://www.w3.org/1999/xlink" x="0px" y="0px"
	 viewBox="0 0 12 16" style="enable-background:new 0 0 12 16;" xml:space="preserve">
<style type="text/css">
	.st0{fill-rule:evenodd;clip-rule:evenodd;fill:#FFFFFF;}
</style>
<path class="st0" d="M5.1,0.3c0.8,2.2,0.4,3.4-0.5,4.3C3.5,5.7,2,6.4,0.9,8c-1.5,2-1.7,6.5,3.5,7.7c-2.2-1.2-2.7-4.5-0.3-6.6
	c-0.6,2,0.5,3.3,1.9,2.9c1.4-0.5,2.3,0.5,2.3,1.7c0,0.8-0.3,1.4-1.1,1.8C10.6,14.8,12,12,12,9.9c0-2.8-2.5-3.2-1.2-5.6
	C9.2,4.4,8.7,5.4,8.8,7c0.1,1.1-1,1.8-1.9,1.3C6.3,7.9,6.3,7.1,6.9,6.5C8.2,5.3,8.7,2.5,5.1,0.3L5.1,0.3L5.1,0.3z"/>
</svg>
